<svg width="94" height="94" viewBox="0 0 94 94" fill="none" xmlns="http://www.w3.org/2000/svg">
<path d="M47 94C40.6354 94 34.5462 92.7607 28.7324 90.2822C22.9186 87.8037 17.9157 84.4684 13.7236 80.2764C9.53158 76.0843 6.19629 71.0814 3.71777 65.2676C1.23926 59.4538 0 53.3646 0 47C0 40.6354 1.23926 34.5462 3.71777 28.7324C6.19629 22.9186 9.53158 17.9157 13.7236 13.7236C17.9157 9.53158 22.9186 6.19629 28.7324 3.71777C34.5462 1.23926 40.6354 0 47 0C53.3646 0 59.4538 1.23926 65.2676 3.71777C71.0814 6.19629 76.0843 9.53158 80.2764 13.7236C84.4684 17.9157 87.8037 22.9186 90.2822 28.7324C92.7607 34.5462 94 40.6354 94 47C94 53.3646 92.7607 59.4538 90.2822 65.2676C87.8037 71.0814 84.4684 76.0843 80.2764 80.2764C76.0843 84.4684 71.0814 87.8037 65.2676 90.2822C59.4538 92.7607 53.3646 94 47 94ZM70.5 29.375C70.5 27.7839 69.9339 26.4069 68.8018 25.2441C67.6696 24.0814 66.2773 23.5 64.625 23.5H29.375C27.7839 23.5 26.4069 24.0814 25.2441 25.2441C24.0814 26.4069 23.5 27.7839 23.5 29.375V35.25H33.9648C37.5143 31.3333 41.8594 29.375 47 29.375C52.1406 29.375 56.4857 31.3333 60.0352 35.25H70.5V29.375ZM35.25 47C35.25 50.2435 36.3975 53.0127 38.6924 55.3076C40.9873 57.6025 43.7565 58.75 47 58.75C50.2435 58.75 53.0127 57.6025 55.3076 55.3076C57.6025 53.0127 58.75 50.2435 58.75 47C58.75 43.7565 57.6025 40.9873 55.3076 38.6924C53.0127 36.3975 50.2435 35.25 47 35.25C43.7565 35.25 40.9873 36.3975 38.6924 38.6924C36.3975 40.9873 35.25 43.7565 35.25 47ZM70.5 41.125H63.5234C64.2578 43.1445 64.625 45.1029 64.625 47C64.625 51.8958 62.9115 56.0573 59.4844 59.4844C56.0573 62.9115 51.8958 64.625 47 64.625C42.1042 64.625 37.9427 62.9115 34.5156 59.4844C31.0885 56.0573 29.375 51.8958 29.375 47C29.375 45.1029 29.7422 43.1445 30.4766 41.125H23.5V64.625C23.5 66.2773 24.0661 67.6696 25.1982 68.8018C26.3304 69.9339 27.7227 70.5 29.375 70.5H64.625C66.2773 70.5 67.6696 69.9339 68.8018 68.8018C69.9339 67.6696 70.5 66.2773 70.5 64.625V41.125Z" fill="black"/>
</svg>
