<svg width="104" height="54" viewBox="0 0 104 54" fill="none" xmlns="http://www.w3.org/2000/svg">
<g clip-path="url(#clip0)">
<path d="M67.1248 24.9925C67.6273 23.2776 67.8786 21.458 67.8786 19.5757C67.8995 8.76307 59.1061 0 48.2819 0C39.0907 0 31.3861 6.3161 29.2715 14.8491C35.4897 17.7771 58.5618 23.6958 67.1248 24.9925Z" fill="white"/>
<path d="M47.5086 23.8003C40.5577 23.0056 33.9836 21.9599 28.7285 20.8096C28.7704 21.5625 28.8541 22.2945 28.9798 23.0056C36.2866 24.5951 32.6018 23.9258 39.2178 25.1597C44.0541 26.0591 45.8547 26.31 50.4188 27.1048C47.048 26.812 36.2238 27.4603 30.7384 28.3387C33.9627 34.7594 40.5996 39.1514 48.2624 39.1514C57.1604 39.1514 64.6557 33.2326 67.0634 25.1388C61.5362 25.0761 54.5643 24.616 47.5086 23.8003Z" fill="white"/>
</g>
<g clip-path="url(#clip1)">
<path d="M0 44.6621H5.38138C6.5499 44.6621 7.16492 44.7421 7.68768 44.9823C8.6102 45.3558 9.13297 46.1295 9.13297 47.0633C9.13297 48.0771 8.6102 48.6374 7.38017 48.9308C8.14894 49.0909 8.51795 49.2243 8.85621 49.5445C9.28672 49.9447 9.53272 50.5049 9.53272 51.1452C9.53272 52.1324 8.94846 53.0128 8.08744 53.4397C7.53393 53.7065 7.07267 53.7598 5.78114 53.7598H0V44.6621ZM5.13537 48.4773C6.2424 48.4773 6.39615 48.4506 6.76516 48.3439C7.31867 48.1838 7.59543 47.7569 7.59543 47.0899C7.59543 46.0761 7.01117 45.756 5.28912 45.756H1.41453V48.4773H5.13537ZM5.38138 52.6393C6.3654 52.6393 6.70366 52.6126 7.10342 52.4792C7.68768 52.2658 7.99519 51.8389 7.99519 51.0919C7.99519 50.4782 7.77993 50.0514 7.38017 49.8379C6.88816 49.5711 6.5499 49.5445 5.16612 49.5445H1.41453V52.6393H5.38138Z" fill="white"/>
<path d="M15.0977 44.6621H16.4507V53.7331H15.0977V44.6621Z" fill="white"/>
<path d="M30.7819 53.6263C30.4744 53.7331 30.3207 53.7597 29.8594 53.7597C28.8754 53.7597 28.3834 53.4129 28.2296 52.6125C27.5839 53.4929 26.4461 53.9465 24.9086 53.9465C23.002 53.9465 21.8027 53.1461 21.8027 51.8655C21.8027 50.7983 22.633 50.158 24.232 49.9179C24.5088 49.8912 25.0623 49.8379 27.0304 49.6511C27.8606 49.5711 28.1989 49.3576 28.1989 48.8774C28.1989 48.2104 27.3994 47.8102 25.9848 47.8102C24.3243 47.8102 23.6478 48.157 23.494 49.0908H22.0795C22.3255 47.5167 23.5248 46.7964 25.9233 46.7964C27.3071 46.7964 28.2604 46.9831 28.8139 47.3567C29.3982 47.7568 29.5519 48.157 29.5519 49.3309V52.0256C29.5519 52.6125 29.7364 52.7726 30.3822 52.7726C30.4744 52.7726 30.5359 52.7459 30.7204 52.7459V53.6263H30.7819ZM25.0931 50.825C24.3243 50.9317 23.9553 51.0384 23.7093 51.1985C23.4633 51.3586 23.3095 51.6254 23.3095 51.8655C23.3095 52.4791 24.1398 52.9327 25.2161 52.9327C26.5076 52.9327 27.8299 52.319 28.1374 51.5453C28.2604 51.2785 28.3219 50.7183 28.3219 50.158C27.5224 50.4782 27.5224 50.4782 25.0931 50.825Z" fill="white"/>
<path d="M43.5122 51.3319C42.9587 53.0127 41.4826 53.9465 39.4838 53.9465C36.9315 53.9465 35.2402 52.5325 35.2402 50.3981C35.2402 48.2104 36.9623 46.7964 39.5761 46.7964C41.5749 46.7964 42.9894 47.7035 43.4814 49.2776H41.9746C41.6364 48.2904 40.8369 47.7835 39.5761 47.7835C37.854 47.7835 36.6855 48.824 36.6855 50.3181C36.6855 51.8922 37.7925 52.906 39.4531 52.906C40.7446 52.906 41.6056 52.3457 42.0361 51.2785H43.5122V51.3319Z" fill="white"/>
<path d="M48.832 44.6621H50.1851V49.998L54.3979 47.0366H56.5197L52.7681 49.5978L56.7965 53.7331H54.8899L51.6303 50.3982L50.1851 51.3587V53.7331H48.832V44.6621Z" fill="white"/>
<path d="M62.854 50.825C63.0692 52.2656 64.084 52.8526 66.2365 52.8526C68.2353 52.8526 69.2809 52.2923 69.2809 51.2251C69.2809 50.6916 68.9426 50.318 68.2661 50.1046C67.8971 49.9979 67.5281 49.9179 65.9905 49.7311C64.1148 49.491 63.592 49.3843 62.977 49.1175C62.0545 48.7173 61.5625 48.0236 61.5625 47.1699C61.5625 45.5157 63.3152 44.4219 65.9598 44.4219C68.6966 44.4219 70.2034 45.329 70.4494 47.1965H69.0041C68.7274 46.076 67.7126 45.5424 65.8983 45.5424C64.207 45.5424 63.1615 46.1294 63.1615 47.0631C63.1615 47.5967 63.4997 47.9436 64.2685 48.157C64.7298 48.2904 65.068 48.3704 66.7593 48.5839C68.1738 48.7706 69.0964 48.9574 69.5884 49.1441C70.4186 49.491 70.8799 50.158 70.8799 51.0651C70.8799 52.8526 69.0964 53.9998 66.2981 53.9998C63.1615 53.9998 61.5317 52.9593 61.4395 50.8516H62.854V50.825Z" fill="white"/>
<path d="M79.952 53.8131C79.4907 53.8932 79.214 53.9199 78.7527 53.9199C77.6764 53.9199 77.0922 53.7331 76.8769 53.3062C76.7539 53.0928 76.7539 53.0128 76.7232 52.159V47.9703H75.4316V47.0366H76.7232V45.249H78.0762V47.0632H79.9828V47.9703H78.0762V52.1323C78.0762 52.7993 78.2607 52.9327 79.0295 52.9327C79.4292 52.9327 79.6137 52.906 79.952 52.8527V53.8131Z" fill="white"/>
<path d="M93.6667 53.6263C93.3592 53.7331 93.2054 53.7597 92.7442 53.7597C91.7602 53.7597 91.2681 53.4129 91.1144 52.6125C90.4686 53.4929 89.3309 53.9465 87.7933 53.9465C85.8868 53.9465 84.6875 53.1461 84.6875 51.8655C84.6875 50.7983 85.5178 50.158 87.1168 49.9179C87.3936 49.8912 87.9471 49.8379 89.9151 49.6511C90.7454 49.5711 91.0837 49.3576 91.0837 48.8774C91.0837 48.2104 90.2841 47.8102 88.8696 47.8102C87.2091 47.8102 86.5325 48.157 86.3788 49.0908H84.9643C85.2103 47.5167 86.4095 46.7964 88.8081 46.7964C90.1919 46.7964 91.1452 46.9831 91.6987 47.3567C92.2829 47.7568 92.4367 48.157 92.4367 49.3309V52.0256C92.4367 52.6125 92.6212 52.7726 93.2669 52.7726C93.3592 52.7726 93.4207 52.7459 93.6052 52.7459V53.6263H93.6667ZM87.9778 50.825C87.2091 50.9317 86.8401 51.0384 86.594 51.1985C86.348 51.3586 86.1943 51.6254 86.1943 51.8655C86.1943 52.4791 87.0246 52.9327 88.1008 52.9327C89.3924 52.9327 90.7146 52.319 91.0221 51.5453C91.1452 51.2785 91.2067 50.7183 91.2067 50.158C90.3764 50.4782 90.3764 50.4782 87.9778 50.825Z" fill="white"/>
<path d="M98.4961 47.0364H99.8491V48.6105C100.218 47.9968 100.464 47.6767 100.802 47.4099C101.264 47.0364 101.909 46.8496 102.617 46.8496C102.863 46.8496 103.016 46.8763 103.324 46.9296V48.1302C102.924 48.0502 102.709 48.0235 102.401 48.0235C101.602 48.0235 100.925 48.2903 100.403 48.7705C100.003 49.144 99.8491 49.6243 99.8491 50.398V53.7329H98.4961V47.0364Z" fill="white"/>
</g>
<defs>
<clipPath id="clip0">
<rect width="39.1724" height="39.1724" fill="white" transform="translate(28.7285)"/>
</clipPath>
<clipPath id="clip1">
<rect width="103.322" height="9.60462" fill="white" transform="translate(0 44.3953)"/>
</clipPath>
</defs>
</svg>
