<svg width="94" height="94" viewBox="0 0 94 94" fill="none" xmlns="http://www.w3.org/2000/svg">
<path d="M47 0C21.0423 0 0 21.0423 0 47C0 72.9577 21.0423 94 47 94C72.9577 94 94 72.9577 94 47C94 21.0423 72.9577 0 47 0ZM66.1182 38.5008C66.1378 38.9023 66.1427 39.3038 66.1427 39.6954C66.1427 51.935 56.8357 66.0399 39.808 66.0399C34.7765 66.0483 29.8497 64.6032 25.6199 61.8784C26.3396 61.9666 27.0789 62.0008 27.8279 62.0008C32.1656 62.0008 36.1557 60.5272 39.3233 58.0401C37.393 58.0022 35.5226 57.363 33.9727 56.2116C32.4229 55.0602 31.2709 53.454 30.6773 51.6168C32.0636 51.8804 33.4917 51.8251 34.8534 51.4552C32.7583 51.0315 30.8741 49.8963 29.5204 48.2419C28.1668 46.5875 27.427 44.5159 27.4265 42.3783V42.2657C28.6749 42.956 30.1045 43.3771 31.6222 43.426C29.658 42.1185 28.2675 40.1099 27.7351 37.8112C27.2027 35.5124 27.5687 33.0971 28.7581 31.0592C31.0834 33.9183 33.9832 36.2573 37.2699 37.9246C40.5565 39.592 44.1566 40.5505 47.8372 40.7382C47.3693 38.752 47.5707 36.6669 48.41 34.8069C49.2494 32.947 50.6798 31.4165 52.4788 30.4534C54.2778 29.4902 56.3445 29.1484 58.3578 29.4811C60.3711 29.8138 62.218 30.8023 63.6116 32.2929C65.6833 31.883 67.6701 31.1231 69.4866 30.0457C68.7961 32.1908 67.3504 34.0122 65.4181 35.1717C67.2533 34.9506 69.0453 34.4573 70.735 33.7078C69.4938 35.5677 67.9303 37.1909 66.1182 38.5008Z" fill="black"/>
</svg>
