<svg width="28" height="28" viewBox="0 0 28 28" fill="none" xmlns="http://www.w3.org/2000/svg">
<path d="M14 28C12.1042 28 10.2904 27.6309 8.55859 26.8926C6.82682 26.1543 5.33659 25.1608 4.08789 23.9121C2.83919 22.6634 1.8457 21.1732 1.10742 19.4414C0.369141 17.7096 0 15.8958 0 14C0 12.1042 0.369141 10.2904 1.10742 8.55859C1.8457 6.82682 2.83919 5.33659 4.08789 4.08789C5.33659 2.83919 6.82682 1.8457 8.55859 1.10742C10.2904 0.369141 12.1042 0 14 0C15.8958 0 17.7096 0.369141 19.4414 1.10742C21.1732 1.8457 22.6634 2.83919 23.9121 4.08789C25.1608 5.33659 26.1543 6.82682 26.8926 8.55859C27.6309 10.2904 28 12.1042 28 14C28 15.8958 27.6309 17.7096 26.8926 19.4414C26.1543 21.1732 25.1608 22.6634 23.9121 23.9121C22.6634 25.1608 21.1732 26.1543 19.4414 26.8926C17.7096 27.6309 15.8958 28 14 28ZM21 8.75C21 8.27604 20.8314 7.86589 20.4941 7.51953C20.1569 7.17318 19.7422 7 19.25 7H8.75C8.27604 7 7.86589 7.17318 7.51953 7.51953C7.17318 7.86589 7 8.27604 7 8.75V10.5H10.1172C11.1745 9.33333 12.4688 8.75 14 8.75C15.5312 8.75 16.8255 9.33333 17.8828 10.5H21V8.75ZM10.5 14C10.5 14.9661 10.8418 15.791 11.5254 16.4746C12.209 17.1582 13.0339 17.5 14 17.5C14.9661 17.5 15.791 17.1582 16.4746 16.4746C17.1582 15.791 17.5 14.9661 17.5 14C17.5 13.0339 17.1582 12.209 16.4746 11.5254C15.791 10.8418 14.9661 10.5 14 10.5C13.0339 10.5 12.209 10.8418 11.5254 11.5254C10.8418 12.209 10.5 13.0339 10.5 14ZM21 12.25H18.9219C19.1406 12.8516 19.25 13.4349 19.25 14C19.25 15.4583 18.7396 16.6979 17.7188 17.7188C16.6979 18.7396 15.4583 19.25 14 19.25C12.5417 19.25 11.3021 18.7396 10.2812 17.7188C9.26042 16.6979 8.75 15.4583 8.75 14C8.75 13.4349 8.85938 12.8516 9.07812 12.25H7V19.25C7 19.7422 7.16862 20.1569 7.50586 20.4941C7.8431 20.8314 8.25781 21 8.75 21H19.25C19.7422 21 20.1569 20.8314 20.4941 20.4941C20.8314 20.1569 21 19.7422 21 19.25V12.25Z" fill="black"/>
</svg>
