<svg width="26" height="26" viewBox="0 0 26 26" fill="none" xmlns="http://www.w3.org/2000/svg">
<path d="M13 0C5.82021 0 0 5.82021 0 13C0 20.1798 5.82021 26 13 26C20.1798 26 26 20.1798 26 13C26 5.82021 20.1798 0 13 0ZM18.288 10.6492C18.2934 10.7602 18.2948 10.8713 18.2948 10.9796C18.2948 14.365 15.7205 18.2664 11.0107 18.2664C9.61904 18.2687 8.25631 17.869 7.08635 17.1153C7.28542 17.1397 7.4899 17.1492 7.69708 17.1492C8.89687 17.1492 10.0005 16.7416 10.8767 16.0536C10.3427 16.0432 9.82539 15.8664 9.39671 15.5479C8.96804 15.2294 8.6494 14.7851 8.48521 14.277C8.86865 14.3499 9.26365 14.3346 9.64031 14.2323C9.06079 14.1151 8.53964 13.8011 8.16523 13.3435C7.79082 12.8859 7.58619 12.3129 7.58604 11.7217V11.6905C7.93135 11.8815 8.32677 11.9979 8.74656 12.0115C8.20327 11.6498 7.81867 11.0942 7.67141 10.4584C7.52416 9.82258 7.62538 9.15451 7.95437 8.59083C8.59754 9.38167 9.39962 10.0286 10.3087 10.4898C11.2177 10.951 12.2135 11.2161 13.2316 11.268C13.1021 10.7186 13.1578 10.1419 13.39 9.62745C13.6222 9.113 14.0178 8.68967 14.5154 8.42327C15.013 8.15687 15.5847 8.06233 16.1415 8.15435C16.6984 8.24636 17.2092 8.51977 17.5947 8.93208C18.1677 8.81871 18.7173 8.60851 19.2197 8.31052C19.0287 8.90383 18.6288 9.40763 18.0944 9.72833C18.602 9.6672 19.0976 9.53073 19.565 9.32344C19.2217 9.83788 18.7892 10.2868 18.288 10.6492Z" fill="black"/>
</svg>
