<svg width="104" height="54" viewBox="0 0 104 54" fill="none" xmlns="http://www.w3.org/2000/svg">
<g clip-path="url(#clip0)">
<path d="M67.1256 24.9925C67.6281 23.2776 67.8793 21.458 67.8793 19.5757C67.9002 8.76307 59.1069 0 48.2826 0C39.0915 0 31.3868 6.3161 29.2722 14.8491C35.4904 17.7771 58.5625 23.6958 67.1256 24.9925Z" fill="black"/>
<path d="M47.5094 23.8003C40.5584 23.0056 33.9843 21.9599 28.7292 20.8096C28.7711 21.5625 28.8549 22.2945 28.9805 23.0056C36.2874 24.5951 32.6025 23.9258 39.2185 25.1597C44.0548 26.0591 45.8554 26.31 50.4196 27.1048C47.0488 26.812 36.2246 27.4603 30.7392 28.3387C33.9634 34.7594 40.6003 39.1514 48.2631 39.1514C57.1612 39.1514 64.6565 33.2326 67.0642 25.1388C61.5369 25.0761 54.565 24.616 47.5094 23.8003Z" fill="black"/>
</g>
<g clip-path="url(#clip1)">
<path d="M0 44.6626H5.38138C6.5499 44.6626 7.16492 44.7426 7.68768 44.9828C8.6102 45.3563 9.13297 46.13 9.13297 47.0638C9.13297 48.0776 8.6102 48.6378 7.38017 48.9313C8.14894 49.0914 8.51795 49.2248 8.85621 49.5449C9.28672 49.9451 9.53272 50.5054 9.53272 51.1457C9.53272 52.1329 8.94846 53.0133 8.08744 53.4402C7.53393 53.707 7.07267 53.7603 5.78114 53.7603H0V44.6626ZM5.13537 48.4778C6.2424 48.4778 6.39615 48.4511 6.76516 48.3444C7.31867 48.1843 7.59543 47.7574 7.59543 47.0904C7.59543 46.0766 7.01117 45.7565 5.28912 45.7565H1.41453V48.4778H5.13537ZM5.38138 52.6398C6.3654 52.6398 6.70366 52.6131 7.10342 52.4797C7.68768 52.2663 7.99519 51.8394 7.99519 51.0924C7.99519 50.4787 7.77993 50.0519 7.38017 49.8384C6.88816 49.5716 6.5499 49.5449 5.16612 49.5449H1.41453V52.6398H5.38138Z" fill="black"/>
<path d="M15.0984 44.6626H16.4514V53.7336H15.0984V44.6626Z" fill="black"/>
<path d="M30.7812 53.6268C30.4737 53.7335 30.32 53.7602 29.8587 53.7602C28.8747 53.7602 28.3827 53.4134 28.2289 52.613C27.5831 53.4934 26.4454 53.947 24.9078 53.947C23.0013 53.947 21.802 53.1466 21.802 51.866C21.802 50.7988 22.6323 50.1585 24.2313 49.9184C24.5081 49.8917 25.0616 49.8383 27.0296 49.6516C27.8599 49.5715 28.1982 49.3581 28.1982 48.8779C28.1982 48.2109 27.3986 47.8107 25.9841 47.8107C24.3236 47.8107 23.647 48.1575 23.4933 49.0913H22.0788C22.3248 47.5172 23.524 46.7969 25.9226 46.7969C27.3064 46.7969 28.2597 46.9836 28.8132 47.3571C29.3974 47.7573 29.5512 48.1575 29.5512 49.3314V52.0261C29.5512 52.613 29.7357 52.7731 30.3815 52.7731C30.4737 52.7731 30.5352 52.7464 30.7197 52.7464V53.6268H30.7812ZM25.0923 50.8255C24.3236 50.9322 23.9546 51.0389 23.7085 51.199C23.4625 51.3591 23.3088 51.6259 23.3088 51.866C23.3088 52.4796 24.1391 52.9332 25.2153 52.9332C26.5069 52.9332 27.8291 52.3195 28.1367 51.5458C28.2597 51.279 28.3212 50.7188 28.3212 50.1585C27.5216 50.4786 27.5216 50.4786 25.0923 50.8255Z" fill="black"/>
<path d="M43.513 51.3324C42.9595 53.0132 41.4835 53.947 39.4847 53.947C36.9324 53.947 35.2411 52.533 35.2411 50.3986C35.2411 48.2109 36.9631 46.7969 39.5769 46.7969C41.5757 46.7969 42.9903 47.704 43.4823 49.2781H41.9755C41.6372 48.2909 40.8377 47.784 39.5769 47.784C37.8549 47.784 36.6864 48.8245 36.6864 50.3186C36.6864 51.8927 37.7934 52.9065 39.4539 52.9065C40.7455 52.9065 41.6065 52.3462 42.037 51.279H43.513V51.3324Z" fill="black"/>
<path d="M48.8328 44.6626H50.1858V49.9985L54.3986 47.0371H56.5204L52.7689 49.5983L56.7972 53.7336H54.8907L51.6311 50.3987L50.1858 51.3591V53.7336H48.8328V44.6626Z" fill="black"/>
<path d="M62.8531 50.8254C63.0684 52.2661 64.0832 52.8531 66.2357 52.8531C68.2345 52.8531 69.28 52.2928 69.28 51.2256C69.28 50.692 68.9418 50.3185 68.2652 50.1051C67.8962 49.9984 67.5272 49.9183 65.9897 49.7316C64.1139 49.4915 63.5911 49.3848 62.9761 49.118C62.0536 48.7178 61.5616 48.0241 61.5616 47.1704C61.5616 45.5162 63.3144 44.4224 65.9589 44.4224C68.6957 44.4224 70.2025 45.3295 70.4485 47.197H69.0033C68.7265 46.0765 67.7117 45.5429 65.8974 45.5429C64.2062 45.5429 63.1606 46.1299 63.1606 47.0636C63.1606 47.5972 63.4989 47.9441 64.2677 48.1575C64.7289 48.2909 65.0672 48.3709 66.7585 48.5844C68.173 48.7711 69.0955 48.9579 69.5875 49.1446C70.4178 49.4915 70.879 50.1585 70.879 51.0656C70.879 52.8531 69.0955 54.0003 66.2972 54.0003C63.1606 54.0003 61.5309 52.9598 61.4386 50.8521H62.8531V50.8254Z" fill="black"/>
<path d="M79.9522 53.8136C79.491 53.8937 79.2142 53.9204 78.753 53.9204C77.6767 53.9204 77.0924 53.7336 76.8772 53.3067C76.7542 53.0933 76.7542 53.0133 76.7234 52.1595V47.9708H75.4319V47.037H76.7234V45.2495H78.0764V47.0637H79.983V47.9708H78.0764V52.1328C78.0764 52.7998 78.261 52.9332 79.0297 52.9332C79.4295 52.9332 79.614 52.9065 79.9522 52.8532V53.8136V53.8136Z" fill="black"/>
<path d="M93.6661 53.6268C93.3586 53.7335 93.2048 53.7602 92.7436 53.7602C91.7596 53.7602 91.2675 53.4134 91.1138 52.613C90.468 53.4934 89.3302 53.947 87.7927 53.947C85.8862 53.947 84.6869 53.1466 84.6869 51.866C84.6869 50.7988 85.5172 50.1585 87.1162 49.9184C87.3929 49.8917 87.9465 49.8383 89.9145 49.6516C90.7448 49.5715 91.083 49.3581 91.083 48.8779C91.083 48.2109 90.2835 47.8107 88.869 47.8107C87.2084 47.8107 86.5319 48.1575 86.3782 49.0913H84.9636C85.2096 47.5172 86.4089 46.7969 88.8075 46.7969C90.1913 46.7969 91.1445 46.9836 91.6981 47.3571C92.2823 47.7573 92.4361 48.1575 92.4361 49.3314V52.0261C92.4361 52.613 92.6206 52.7731 93.2663 52.7731C93.3586 52.7731 93.4201 52.7464 93.6046 52.7464V53.6268H93.6661ZM87.9772 50.8255C87.2085 50.9322 86.8394 51.0389 86.5934 51.199C86.3474 51.3591 86.1937 51.6259 86.1937 51.866C86.1937 52.4796 87.0239 52.9332 88.1002 52.9332C89.3917 52.9332 90.714 52.3195 91.0215 51.5458C91.1445 51.279 91.206 50.7188 91.206 50.1585C90.3758 50.4786 90.3758 50.4786 87.9772 50.8255Z" fill="black"/>
<path d="M98.4951 47.0369H99.8481V48.6109C100.217 47.9973 100.463 47.6772 100.801 47.4104C101.263 47.0369 101.908 46.8501 102.616 46.8501C102.862 46.8501 103.015 46.8768 103.323 46.9301V48.1307C102.923 48.0507 102.708 48.024 102.4 48.024C101.601 48.024 100.924 48.2908 100.402 48.771C100.002 49.1445 99.8481 49.6248 99.8481 50.3985V53.7334H98.4951V47.0369Z" fill="black"/>
</g>
<defs>
<clipPath id="clip0">
<rect width="39.1724" height="39.1724" fill="white" transform="translate(28.7292)"/>
</clipPath>
<clipPath id="clip1">
<rect width="103.322" height="9.60462" fill="white" transform="translate(0 44.3955)"/>
</clipPath>
</defs>
</svg>
